<?xml version="1.0" encoding="utf-8"?>
<svg viewBox="0 0 500 500" xmlns="http://www.w3.org/2000/svg">
  <g transform="matrix(1, 0, 0, 1, 0.000443, 0)" style="opacity: 0.25; visibility: hidden;">
    <title>Icon Guide</title>
    <rect stroke="#e5e5e5" stroke-width="1.5" width="500" height="500" id="svg_1" rx="100" y="0" x="0" style="fill: rgb(255, 201, 60);"/>
    <line stroke="#e5e5e5" stroke-width="1.5" fill-opacity="null" x1="30" y1="0" x2="30" y2="500" id="svg_4" stroke-linejoin="null" stroke-linecap="null" style="fill: rgb(255, 244, 121);"/>
    <line stroke="#e5e5e5" stroke-width="1.5" fill-opacity="null" x1="0" y1="30" x2="500" y2="30" id="svg_5" stroke-linejoin="null" stroke-linecap="null" style="fill: rgb(255, 244, 121);"/>
    <line stroke="#e5e5e5" stroke-width="1.5" fill-opacity="null" x1="0" y1="470" x2="500" y2="470" id="svg_6" stroke-linejoin="null" stroke-linecap="null" style="fill: rgb(255, 244, 121);"/>
    <line stroke="#e5e5e5" stroke-width="1.5" fill-opacity="null" x1="470" y1="0" x2="470" y2="500" id="svg_7" stroke-linejoin="null" stroke-linecap="null" style="fill: rgb(255, 244, 121);"/>
    <line stroke="#e5e5e5" stroke-width="1.5" stroke-opacity="null" fill-opacity="null" x1="250" y1="0" x2="250" y2="500" id="svg_9" stroke-linejoin="null" stroke-linecap="null" style="fill: rgb(255, 244, 121);"/>
    <line stroke="#e5e5e5" stroke-width="1.5" stroke-opacity="null" fill-opacity="null" x1="0" y1="250" x2="500" y2="250" id="svg_10" stroke-linejoin="null" stroke-linecap="null" style="fill: rgb(255, 244, 121);"/>
    <line stroke="#e5e5e5" stroke-width="1.5" fill-opacity="null" x1="140" y1="0" x2="140" y2="500" id="line-1" stroke-linejoin="null" stroke-linecap="null" style="fill: rgb(255, 244, 121);"/>
    <line stroke="#e5e5e5" stroke-width="1.5" fill-opacity="null" x1="-14.907" y1="120.036" x2="-14.907" y2="620.036" id="line-2" stroke-linejoin="null" stroke-linecap="null" transform="matrix(1, 0, 0, 1, 374.906528, -120.035781)" style="fill: rgb(255, 244, 121);"/>
    <line stroke="#e5e5e5" stroke-width="1.5" stroke-opacity="null" fill-opacity="null" x1="-0.726" y1="296.903" x2="499.274" y2="296.903" id="line-3" stroke-linejoin="null" stroke-linecap="null" transform="matrix(1, 0, 0, 1, 0.726272, -156.903226)" style="fill: rgb(255, 244, 121);"/>
    <line stroke="#e5e5e5" stroke-width="1.5" stroke-opacity="null" fill-opacity="null" x1="-152.036" y1="516.336" x2="347.964" y2="516.336" id="line-4" stroke-linejoin="null" stroke-linecap="null" transform="matrix(1, 0, 0, 1, 152.035549, -156.335506)" style="fill: rgb(255, 244, 121);"/>
    <line stroke="#e5e5e5" stroke-width="1.5" fill-opacity="null" x1="0" y1="500" x2="500" y2="0" id="svg_3" stroke-linejoin="null" stroke-linecap="null" style="fill: rgb(255, 244, 121);"/>
    <line stroke="#e5e5e5" stroke-width="1.5" fill-opacity="null" x1="0" y1="0" x2="500" y2="500" id="svg_2" stroke-linejoin="null" stroke-linecap="null" style="fill: rgb(255, 244, 121);"/>
    <ellipse stroke="#e5e5e5" stroke-width="1.5" stroke-opacity="null" fill-opacity="null" cx="432" cy="432" id="svg_8" rx="100" ry="100" style="fill: rgb(255, 255, 255);"/>
    <line stroke="#e5e5e5" stroke-width="1.5" stroke-opacity="null" fill-opacity="null" x1="0.306" y1="315.9" x2="500.306" y2="315.9" id="line-5" stroke-linejoin="null" stroke-linecap="null" transform="matrix(1, 0, 0, 1, -0.306207, -155.899823)" style="fill: rgb(255, 244, 121);"/>
    <line stroke="#e5e5e5" stroke-width="1.5" stroke-opacity="null" fill-opacity="null" x1="-201.147" y1="256.21" x2="298.853" y2="256.21" id="line-6" stroke-linejoin="null" stroke-linecap="null" transform="matrix(1, 0, 0, 1, 201.146154, -156.209628)" style="fill: rgb(255, 244, 121);"/>
    <circle style="fill: rgb(198, 198, 198);" cx="250" cy="250" r="110"/>
    <circle style="fill: rgba(216, 216, 216, 0.52);" cx="250" cy="250" r="180"/>
  </g>
  <g>
    <path d="M 340 250 C 340 253.107 339.843 256.177 339.536 259.203 C 339.229 262.228 338.772 265.21 338.172 268.139 C 337.573 271.068 336.831 273.946 335.954 276.764 C 335.078 279.582 334.066 282.341 332.928 285.032 C 331.789 287.723 330.523 290.348 329.138 292.899 C 327.752 295.45 326.247 297.926 324.63 300.32 C 323.012 302.714 321.283 305.026 319.449 307.248 C 317.615 309.471 315.676 311.604 313.64 313.64 C 311.604 315.676 309.471 317.615 307.248 319.449 C 305.026 321.283 302.714 323.012 300.32 324.63 C 297.926 326.247 295.45 327.752 292.899 329.137 C 290.348 330.523 287.723 331.789 285.032 332.928 C 282.34 334.066 279.582 335.077 276.764 335.954 C 273.946 336.83 271.068 337.571 268.139 338.171 C 265.21 338.77 262.228 339.228 259.203 339.535 C 256.177 339.842 253.107 340 250 340 C 246.894 340 243.824 339.843 240.798 339.535 C 237.773 339.228 234.792 338.77 231.862 338.171 C 228.933 337.571 226.055 336.83 223.237 335.954 C 220.419 335.077 217.66 334.066 214.968 332.928 C 212.277 331.789 209.652 330.523 207.101 329.137 C 204.551 327.752 202.075 326.247 199.68 324.63 C 197.286 323.012 194.974 321.282 192.752 319.448 C 190.529 317.614 188.396 315.676 186.36 313.64 C 184.325 311.604 182.386 309.471 180.552 307.249 C 178.718 305.026 176.988 302.714 175.371 300.32 C 173.754 297.926 172.249 295.45 170.863 292.899 C 169.478 290.349 168.212 287.724 167.073 285.032 C 165.935 282.341 164.923 279.582 164.047 276.764 C 163.17 273.946 162.429 271.068 161.829 268.139 C 161.229 265.21 160.772 262.228 160.465 259.203 C 160.157 256.177 160 253.107 160 250 C 160 246.894 160.157 243.824 160.465 240.798 C 160.772 237.773 161.229 234.792 161.829 231.862 C 162.429 228.933 163.17 226.055 164.047 223.237 C 164.923 220.419 165.935 217.66 167.073 214.968 C 168.212 212.277 169.477 209.652 170.863 207.101 C 172.248 204.55 173.754 202.074 175.371 199.68 C 176.988 197.286 178.718 194.974 180.552 192.752 C 182.386 190.529 184.325 188.396 186.36 186.36 C 188.396 184.325 190.529 182.386 192.752 180.552 C 194.974 178.717 197.286 176.988 199.68 175.37 C 202.074 173.753 204.55 172.248 207.101 170.863 C 209.652 169.477 212.277 168.212 214.968 167.073 C 217.66 165.934 230 160 230 136.4 C 230 120 230 105 230 100 C 230 95 235.037 84.872 250 85 C 264.963 85.128 270 95 270 100 C 270 105 270 120 270 136.4 C 270 160 282.341 165.935 285.032 167.073 C 287.724 168.212 290.349 169.477 292.899 170.863 C 295.45 172.248 297.926 173.753 300.32 175.37 C 302.714 176.988 305.026 178.717 307.249 180.552 C 309.471 182.386 311.604 184.325 313.64 186.36 C 315.676 188.396 317.615 190.529 319.449 192.752 C 321.283 194.974 323.013 197.286 324.63 199.68 C 326.247 202.074 327.752 204.55 329.138 207.101 C 330.524 209.652 331.79 212.277 332.928 214.968 C 334.067 217.66 335.078 220.419 335.954 223.237 C 336.831 226.055 337.573 228.933 338.172 231.862 C 338.772 234.791 339.229 237.772 339.536 240.798 C 339.843 243.824 340 246.894 340 250" style="fill: rgb(250, 250, 250);"/>
    <line style="stroke-linecap: round; stroke-width: 20px; fill: rgb(250, 250, 250); stroke: rgb(250, 250, 250);" x1="250" y1="370" x2="250" y2="400"/>
    <line style="stroke-linecap: round; stroke-width: 20px; fill: rgb(250, 250, 250); stroke: rgb(250, 250, 250);" x1="335" y1="335" x2="356.213" y2="356.213"/>
    <line style="stroke-linecap: round; stroke-width: 20px; fill: rgb(250, 250, 250); stroke: rgb(250, 250, 250);" x1="165" y1="335" x2="143.787" y2="356.213"/>
    <line style="stroke-linecap: round; stroke-width: 20px; fill: rgb(250, 250, 250); stroke: rgb(250, 250, 250);" x1="130" y1="250" x2="100" y2="250"/>
    <line style="stroke-linecap: round; stroke-width: 20px; fill: rgb(250, 250, 250); stroke: rgb(250, 250, 250);" x1="370" y1="250" x2="400" y2="250"/>
  </g>
</svg>